# xmcd
#
# Track frame offsets:
#	150
#	13561
#	30405
#	43426
#	60273
#	73190
#	86050
#	101437
#	122960
#
# Disc length: 2481 seconds
#
# Revision: 0
# Processed by: cddbd v1.5.1PL0 Copyright (c) Steve Scherf et al.
# Submitted via: audiograbber 1.83.01
#
DISCID=7409af09
DTITLE=Brittany Morris - Grandpa's Pockets
DYEAR=2003
DGENRE=Country
TTITLE0=Grandpa's Pockets
TTITLE1=Flying Over Boulder
TTITLE2=Momma Ain't Here
TTITLE3=Closest Thing To Heaven
TTITLE4=Long Gone
TTITLE5=Strong Enough
TTITLE6=Picture of Me
TTITLE7=I'll Fly Away
TTITLE8=Gegevens track
EXTD=
EXTT0=
EXTT1=
EXTT2=
EXTT3=
EXTT4=
EXTT5=
EXTT6=
EXTT7=
EXTT8=
PLAYORDER=
